<svg width="450" height="872" viewBox="0 0 450 872" fill="none" xmlns="http://www.w3.org/2000/svg">
<g filter="url(#filter0_d_1678_17128)">
<g clip-path="url(#clip0_1678_17128)">
<rect x="6" y="4" width="438" height="860" rx="24" fill="white"/>
<path opacity="0.2" fill-rule="evenodd" clip-rule="evenodd" d="M631.704 42.5887C591.118 30.3876 559.858 62.2919 509.618 109.573C460.63 155.681 384.691 236.394 341.711 285.101C298.711 333.814 231.018 413.666 188.436 470.121C145.573 526.985 114.534 573.431 105.234 604.368C95.9499 635.25 96.991 659.001 108.059 678.895C119.097 698.767 139.247 714.676 166.358 729.433C193.439 744.193 227.464 757.918 266.883 771.594C306.345 785.223 399.949 813.507 399.949 813.507C399.949 813.507 493.632 841.526 534.059 851.913C574.502 862.245 610.463 869.56 641.177 872.174C671.922 874.81 697.513 872.652 717.679 862.16C737.874 851.665 751.847 832.428 761.131 801.546C770.431 770.608 770.148 714.746 765.738 643.671C761.353 573.097 748.912 469.155 739.893 404.803C730.895 340.471 712.059 231.266 696.625 165.791C680.775 98.6422 672.29 54.7899 631.704 42.5887Z" fill="url(#paint0_linear_1678_17128)"/>
<path opacity="0.3" fill-rule="evenodd" clip-rule="evenodd" d="M366 -43C366 -92.8127 335.291 -117.202 288.907 -157.754C243.674 -197.293 166.688 -255.458 120.866 -287.355C75.0354 -319.272 0.532379 -368.448 -50.9614 -397.274C-102.821 -426.279 -144.293 -445.5 -169.375 -445.5C-194.412 -445.5 -211.838 -436.291 -224.156 -417.101C-236.464 -397.953 -243.789 -369.888 -248.701 -334.379C-253.623 -298.902 -256.222 -255.959 -257.58 -206.961C-258.893 -157.931 -259 -43 -259 -43C-259 -43 -258.893 71.9314 -257.58 120.951C-256.222 169.97 -253.623 212.923 -248.701 248.379C-243.789 283.878 -236.464 311.953 -224.156 331.101C-211.838 350.281 -194.412 359.5 -169.375 359.5C-144.293 359.5 -102.821 340.279 -50.9614 311.264C0.532379 282.448 75.0354 233.272 120.866 201.344C166.688 169.448 243.674 111.293 288.907 71.7643C335.291 31.2021 366 6.81265 366 -43Z" fill="url(#paint1_linear_1678_17128)"/>
</g>
</g>
<defs>
<filter id="filter0_d_1678_17128" x="0" y="0" width="450" height="872" filterUnits="userSpaceOnUse" color-interpolation-filters="sRGB">
<feFlood flood-opacity="0" result="BackgroundImageFix"/>
<feColorMatrix in="SourceAlpha" type="matrix" values="0 0 0 0 0 0 0 0 0 0 0 0 0 0 0 0 0 0 127 0" result="hardAlpha"/>
<feOffset dy="2"/>
<feGaussianBlur stdDeviation="3"/>
<feComposite in2="hardAlpha" operator="out"/>
<feColorMatrix type="matrix" values="0 0 0 0 0.152941 0 0 0 0 0.196078 0 0 0 0 0.223529 0 0 0 0.15 0"/>
<feBlend mode="normal" in2="BackgroundImageFix" result="effect1_dropShadow_1678_17128"/>
<feBlend mode="normal" in="SourceGraphic" in2="effect1_dropShadow_1678_17128" result="shape"/>
</filter>
<linearGradient id="paint0_linear_1678_17128" x1="399.949" y1="813.507" x2="631.704" y2="42.5887" gradientUnits="userSpaceOnUse">
<stop stop-color="#273239" stop-opacity="0.05"/>
<stop offset="1" stop-color="#273239" stop-opacity="0.15"/>
</linearGradient>
<linearGradient id="paint1_linear_1678_17128" x1="-259" y1="-43" x2="366" y2="-43" gradientUnits="userSpaceOnUse">
<stop stop-color="#273239" stop-opacity="0.05"/>
<stop offset="1" stop-color="#273239" stop-opacity="0.15"/>
</linearGradient>
<clipPath id="clip0_1678_17128">
<rect x="6" y="4" width="438" height="860" rx="24" fill="white"/>
</clipPath>
</defs>
</svg>
