<svg width="794" height="872" viewBox="0 0 794 872" fill="none" xmlns="http://www.w3.org/2000/svg">
<g filter="url(#filter0_d_1678_14767)">
<g clip-path="url(#clip0_1678_14767)">
<rect x="6" y="4" width="782" height="860" rx="24" fill="white"/>
<path opacity="0.2" fill-rule="evenodd" clip-rule="evenodd" d="M814.013 250.673C773.511 235.319 741.488 259.961 690.1 296.038C639.992 331.221 562.133 393.917 518.006 432.073C473.859 470.232 404.295 533.099 360.412 578.141C316.239 623.512 284.145 661.02 274.187 687.287C264.247 713.507 264.816 734.596 275.529 753.411C286.212 772.203 306.123 788.525 333.045 804.615C359.937 820.705 393.822 836.664 433.123 853.19C472.468 869.678 565.876 905.217 565.876 905.217C565.876 905.217 659.369 940.532 699.748 954.267C740.144 967.955 776.101 978.473 806.885 984.248C837.699 990.045 863.435 991.029 883.891 984.041C904.376 977.053 918.791 961.644 928.731 935.424C938.689 909.157 939.525 859.8 936.523 796.545C933.536 733.734 923.131 640.551 915.366 582.712C907.623 524.893 890.903 426.341 876.72 366.786C862.155 305.706 854.516 266.028 814.013 250.673Z" fill="url(#paint0_linear_1678_14767)"/>
<path opacity="0.3" fill-rule="evenodd" clip-rule="evenodd" d="M567 73C567 29.6846 532.606 8.47635 480.655 -26.786C429.995 -61.1677 343.771 -111.746 292.45 -139.482C241.12 -167.236 157.676 -209.998 100.003 -235.065C41.92 -260.286 -4.52863 -277 -32.6199 -277C-60.6611 -277 -80.1789 -268.992 -93.9744 -252.305C-107.76 -235.655 -115.963 -211.251 -121.465 -180.373C-126.978 -149.523 -129.889 -112.182 -131.409 -69.5748C-132.88 -26.9404 -133 73 -133 73C-133 73 -132.88 172.94 -131.409 215.566C-129.889 258.191 -126.978 295.542 -121.465 326.373C-115.963 357.242 -107.76 381.655 -93.9744 398.305C-80.1789 414.983 -60.6611 423 -32.6199 423C-4.52863 423 41.92 406.286 100.003 381.055C157.676 355.998 241.12 313.236 292.45 285.473C343.771 257.737 429.995 207.168 480.655 172.795C532.606 137.524 567 116.315 567 73Z" fill="url(#paint1_linear_1678_14767)"/>
</g>
</g>
<defs>
<filter id="filter0_d_1678_14767" x="0" y="0" width="794" height="872" filterUnits="userSpaceOnUse" color-interpolation-filters="sRGB">
<feFlood flood-opacity="0" result="BackgroundImageFix"/>
<feColorMatrix in="SourceAlpha" type="matrix" values="0 0 0 0 0 0 0 0 0 0 0 0 0 0 0 0 0 0 127 0" result="hardAlpha"/>
<feOffset dy="2"/>
<feGaussianBlur stdDeviation="3"/>
<feComposite in2="hardAlpha" operator="out"/>
<feColorMatrix type="matrix" values="0 0 0 0 0.152941 0 0 0 0 0.196078 0 0 0 0 0.223529 0 0 0 0.15 0"/>
<feBlend mode="normal" in2="BackgroundImageFix" result="effect1_dropShadow_1678_14767"/>
<feBlend mode="normal" in="SourceGraphic" in2="effect1_dropShadow_1678_14767" result="shape"/>
</filter>
<linearGradient id="paint0_linear_1678_14767" x1="565.876" y1="905.217" x2="814.013" y2="250.673" gradientUnits="userSpaceOnUse">
<stop stop-color="#273239" stop-opacity="0.05"/>
<stop offset="1" stop-color="#273239" stop-opacity="0.15"/>
</linearGradient>
<linearGradient id="paint1_linear_1678_14767" x1="-133" y1="73" x2="567" y2="73" gradientUnits="userSpaceOnUse">
<stop stop-color="#273239" stop-opacity="0.05"/>
<stop offset="1" stop-color="#273239" stop-opacity="0.15"/>
</linearGradient>
<clipPath id="clip0_1678_14767">
<rect x="6" y="4" width="782" height="860" rx="24" fill="white"/>
</clipPath>
</defs>
</svg>
