<svg width="20" height="20" viewBox="0 0 20 20" fill="none" xmlns="http://www.w3.org/2000/svg">
<path fill-rule="evenodd" clip-rule="evenodd" d="M8.69886 2.5H11.3005C12.4193 2.5 13.3351 3.36917 13.4094 4.4691L13.4143 4.61382V5.10163H14.5525H15.8533C16.3023 5.10163 16.6663 5.46562 16.6663 5.91463C16.6663 6.36365 16.3023 6.72764 15.8533 6.72764H15.3655V15.0203C15.3655 16.1391 14.4964 17.0549 13.3964 17.1293L13.2517 17.1341H6.74764C5.62885 17.1341 4.71307 16.265 4.6387 15.1651L4.63382 15.0203V6.72764H4.14602C3.697 6.72764 3.33301 6.36365 3.33301 5.91463C3.33301 5.46562 3.697 5.10163 4.14602 5.10163H5.44683H6.58504V4.61382C6.58504 3.49503 7.45421 2.57925 8.55414 2.50488L8.69886 2.5ZM7.39805 6.72764H6.25984V15.0203C6.25984 15.2628 6.43674 15.4639 6.66852 15.5017L6.74764 15.5081H13.2517C13.4942 15.5081 13.6953 15.3312 13.7331 15.0995L13.7395 15.0203V6.72764H12.6013H7.39805ZM11.7883 5.10163H8.21106V4.61382L8.21744 4.5347C8.25525 4.30292 8.4564 4.12602 8.69886 4.12602H11.3005L11.3796 4.1324C11.6114 4.17021 11.7883 4.37135 11.7883 4.61382V5.10163ZM7.88585 9.16667V13.0691C7.88585 13.5181 8.24985 13.8821 8.69886 13.8821C9.14787 13.8821 9.51187 13.5181 9.51187 13.0691V9.16667C9.51187 8.71765 9.14787 8.35366 8.69886 8.35366C8.24985 8.35366 7.88585 8.71765 7.88585 9.16667ZM10.4875 13.0691V9.16667C10.4875 8.71765 10.8515 8.35366 11.3005 8.35366C11.7495 8.35366 12.1135 8.71765 12.1135 9.16667V13.0691C12.1135 13.5181 11.7495 13.8821 11.3005 13.8821C10.8515 13.8821 10.4875 13.5181 10.4875 13.0691Z" fill="#273239"/>
</svg>
